<svg xmlns="http://www.w3.org/2000/svg" viewBox="0 0 301.72 179.93"><defs><style>.f8edc4b8-28a4-4e0e-94e0-bbf28f696326{font-size:61px;font-family:Mont-Bold, Mont;font-weight:700;}.a8753294-6932-446c-a182-0cf6409c34cb,.f8edc4b8-28a4-4e0e-94e0-bbf28f696326{fill:#381b4a;}.edaa170f-d9be-4599-9d2f-bf2988631fb2,.f04aa40f-258f-4c9c-823c-fdbcea76fbae{fill:#00c6c0;}.f04aa40f-258f-4c9c-823c-fdbcea76fbae{letter-spacing:0em;}</style></defs><g id="b55938cd-b543-4330-a1e5-8c0efd08e3d2" data-name="Layer 2"><g id="e01c6b35-e907-403a-8bf9-66a491418561" data-name="Layer 1"><text class="f8edc4b8-28a4-4e0e-94e0-bbf28f696326" transform="translate(34.78 118.18)">heri<tspan class="f04aa40f-258f-4c9c-823c-fdbcea76fbae" x="119.68" y="0">t</tspan><tspan class="edaa170f-d9be-4599-9d2f-bf2988631fb2" x="145.61" y="0">age</tspan></text><path class="a8753294-6932-446c-a182-0cf6409c34cb" d="M79.39.52c.55-.05.3-.43.37-.52C78.87.23,79.43.62,79.39.52Z"/><polygon class="a8753294-6932-446c-a182-0cf6409c34cb" points="70.77 3.03 70.88 2.83 69.71 3.56 70.77 3.03"/><path class="a8753294-6932-446c-a182-0cf6409c34cb" d="M62.76,5.28c1,.46,2.83-1,4.34-1.17l.28.09.49-.72-1.35.46-1.38.57A11.29,11.29,0,0,1,62.76,5.28Z"/><path class="a8753294-6932-446c-a182-0cf6409c34cb" d="M58,5.35c.37.16-.82.55,1-.29a1.31,1.31,0,0,1-.2,0C58.67,5.13,58.43,5.22,58,5.35Z"/><path class="a8753294-6932-446c-a182-0cf6409c34cb" d="M58.84,5.06c.83-.32-.63,0,0,0Z"/><path class="a8753294-6932-446c-a182-0cf6409c34cb" d="M55.09,6.75l1-.68c-.29-.06-1.27.32-1,0C54.05,6.72,54.35,6.77,55.09,6.75Z"/><path class="a8753294-6932-446c-a182-0cf6409c34cb" d="M54.28,7.66l.51-.33C54.66,7.31,54.51,7.35,54.28,7.66Z"/><path class="a8753294-6932-446c-a182-0cf6409c34cb" d="M55.88,6.63l-1.09.7c.2,0,.31.25.51-.3C55.29,7.26,55.44,7,55.88,6.63Z"/><path class="a8753294-6932-446c-a182-0cf6409c34cb" d="M56.6,6.44c.66-.11,1.47-.35.49.34,1-.49,1.4-.77,1.28-.86S57.6,6,56.6,6.44Z"/><path class="a8753294-6932-446c-a182-0cf6409c34cb" d="M62.59,6.11l.88-.06.64-.45C63.79,5.83,62.47,5.91,62.59,6.11Z"/><path class="a8753294-6932-446c-a182-0cf6409c34cb" d="M48.33,9.58c0,.17.54.16.7.3.23-.19.45-.39.69-.56C49.27,9.42,48.49,9.75,48.33,9.58Z"/><path class="a8753294-6932-446c-a182-0cf6409c34cb" d="M49,9.88l-1,.84C49.05,10.2,49.17,10,49,9.88Z"/><polygon class="a8753294-6932-446c-a182-0cf6409c34cb" points="54.41 8.47 56.13 7.14 54.04 8.63 54.41 8.47"/><polygon class="a8753294-6932-446c-a182-0cf6409c34cb" points="44 12.01 44.45 11.32 43.6 12.46 44 12.01"/><path class="a8753294-6932-446c-a182-0cf6409c34cb" d="M41.23,13.8c.3-.55-.89,0-.51-.47a9,9,0,0,0-1.65,1.77A6.07,6.07,0,0,1,41.23,13.8Z"/><path class="a8753294-6932-446c-a182-0cf6409c34cb" d="M38.31,16a10.64,10.64,0,0,0,.76-.92A4.9,4.9,0,0,0,38.31,16Z"/><path class="a8753294-6932-446c-a182-0cf6409c34cb" d="M46.06,11.71a1.46,1.46,0,0,0-1.1.14l.65.11C45.75,11.87,45.9,11.8,46.06,11.71Z"/><path class="a8753294-6932-446c-a182-0cf6409c34cb" d="M45.64,12h0l-.94.55Z"/><path class="a8753294-6932-446c-a182-0cf6409c34cb" d="M46.17,11.65l-.11.06C46.12,11.72,46.16,11.72,46.17,11.65Z"/><path class="a8753294-6932-446c-a182-0cf6409c34cb" d="M51.22,9.56c-.58.54-1.86,1.45-.34,1.12C51.23,10.18,50.36,10.37,51.22,9.56Z"/><path class="a8753294-6932-446c-a182-0cf6409c34cb" d="M47,11.81l1.24-.56c-.08-.09-.37-.12-.1-.4Z"/><polygon class="a8753294-6932-446c-a182-0cf6409c34cb" points="46.47 12.25 46.99 11.81 46.53 12.03 46.47 12.25"/><path class="a8753294-6932-446c-a182-0cf6409c34cb" d="M40.48,15a7.8,7.8,0,0,1-1.5,1.3,21.22,21.22,0,0,0,2-1.22C41,14.92,41.17,14.53,40.48,15Z"/><path class="a8753294-6932-446c-a182-0cf6409c34cb" d="M43,13.52l-.1.09C43,13.6,43,13.58,43,13.52Z"/><polygon class="a8753294-6932-446c-a182-0cf6409c34cb" points="33.29 20.7 33.42 20.69 33.4 20.61 33.29 20.7"/><path class="a8753294-6932-446c-a182-0cf6409c34cb" d="M41.16,15.09a2.37,2.37,0,0,0,1-.84c-.35.27-.71.56-1.13.85C41,15.17,41,15.21,41.16,15.09Z"/><path class="a8753294-6932-446c-a182-0cf6409c34cb" d="M36.8,17.38a8.68,8.68,0,0,0,1-.43C37.44,17,36.82,17.23,36.8,17.38Z"/><path class="a8753294-6932-446c-a182-0cf6409c34cb" d="M42.65,13.62l.07-.06C42.5,13.58,42.55,13.6,42.65,13.62Z"/><path class="a8753294-6932-446c-a182-0cf6409c34cb" d="M42.65,13.62a4.12,4.12,0,0,0-.52.63,8.55,8.55,0,0,0,.75-.64A.6.6,0,0,1,42.65,13.62Z"/><path class="a8753294-6932-446c-a182-0cf6409c34cb" d="M33.42,24.16c-.19-.36.74-1.61,2-2.11.79-1.05-.66-1.54-2-1.36.08.16.18.28-.7,1.32.51-.14,2.61-1.51,2-.52-1.22,1.29-1.2.82-2,1.21.85-.11-1.21,2-.42,2.32l1-1.22C33.33,23.86,33,24.37,33.42,24.16Z"/><path class="a8753294-6932-446c-a182-0cf6409c34cb" d="M35.44,19.09l.42-.37a9.83,9.83,0,0,1-1.85.77c-.59.75-.65,1-.61,1.12.72-.56,1.41-1.16,2.16-1.68Z"/><path class="a8753294-6932-446c-a182-0cf6409c34cb" d="M37.85,17.21c-.1.61-1,1.56-.11,1.44,1.27-1,.67-1,1.36-1.69-2.05,1.63.46-.66-1.21.28A7.84,7.84,0,0,1,39,16.32L37.76,17h.07c.13,0,.18,0,.06,0l0,0a.45.45,0,0,1,0,.2c-.66.39-.16,0,0-.2,0,0,0-.05,0-.07h0l-2,1.78A18.44,18.44,0,0,0,37.85,17.21Z"/><path class="a8753294-6932-446c-a182-0cf6409c34cb" d="M50.08,12.13c-.09,0-.1,0-.12-.05C49.84,12.21,49.8,12.27,50.08,12.13Z"/><path class="a8753294-6932-446c-a182-0cf6409c34cb" d="M49,12.41a1.67,1.67,0,0,1,.75-.62c.53-.14.1.18.19.29.27-.27,1-.89-.12-.52l-.14.14a5.28,5.28,0,0,1-2.29.41A3.6,3.6,0,0,0,49,12.41Z"/><path class="a8753294-6932-446c-a182-0cf6409c34cb" d="M43.38,14.74c-.59.42-1.15.89-1.7,1.36l1.11-.31-.17-.15C43.7,15,43.34,15,43.38,14.74Z"/><polygon class="a8753294-6932-446c-a182-0cf6409c34cb" points="32.95 20.7 32.89 20.16 32.32 21.47 32.95 20.7"/><polygon class="a8753294-6932-446c-a182-0cf6409c34cb" points="30.82 22.6 30.64 22.24 30.24 22.93 30.82 22.6"/><path class="a8753294-6932-446c-a182-0cf6409c34cb" d="M41.32,158.74l.57.26A3.52,3.52,0,0,0,41.32,158.74Z"/><path class="a8753294-6932-446c-a182-0cf6409c34cb" d="M37.78,156.07l-.21.09C37.8,156.2,37.92,156.19,37.78,156.07Z"/><path class="a8753294-6932-446c-a182-0cf6409c34cb" d="M.75,84.15c-.42.92-1,1.95-.59,1.86l.44-.27A4.92,4.92,0,0,1,.75,84.15Z"/><path class="a8753294-6932-446c-a182-0cf6409c34cb" d="M12.64,129.52v-.3l-.66-.36Z"/><path class="a8753294-6932-446c-a182-0cf6409c34cb" d="M14.53,129.25l.3,1.18A8.43,8.43,0,0,0,14.53,129.25Z"/><path class="a8753294-6932-446c-a182-0cf6409c34cb" d="M62.87,169.59l.82-.19C62.65,169,63,169.41,62.87,169.59Z"/><path class="a8753294-6932-446c-a182-0cf6409c34cb" d="M12.58,45.34A10.77,10.77,0,0,0,11.38,47C12.07,46.25,12.75,45.74,12.58,45.34Z"/><path class="a8753294-6932-446c-a182-0cf6409c34cb" d="M37.18,161.42c.36.18.55.21.6.12C37.41,161.36,37.18,161.29,37.18,161.42Z"/><path class="a8753294-6932-446c-a182-0cf6409c34cb" d="M10.27,49.07c.11-.11.19-.22.29-.34A12.13,12.13,0,0,1,11.38,47,3.94,3.94,0,0,0,10.27,49.07Z"/><path class="a8753294-6932-446c-a182-0cf6409c34cb" d="M145.13,156.38l.18-.09S145.22,156.29,145.13,156.38Z"/><path class="a8753294-6932-446c-a182-0cf6409c34cb" d="M165.88,140c-.13.23-.37.59-.59.93A5.07,5.07,0,0,0,165.88,140Z"/><path class="a8753294-6932-446c-a182-0cf6409c34cb" d="M22.6,30.66c.38-.47,0-.1,0,0Z"/><path class="a8753294-6932-446c-a182-0cf6409c34cb" d="M25.83,29.63c0,.13-.07.24,0,.32A.4.4,0,0,1,25.83,29.63Z"/><path class="a8753294-6932-446c-a182-0cf6409c34cb" d="M10.2,55.62l0,0C10.32,55.53,10.3,55.56,10.2,55.62Z"/><path class="a8753294-6932-446c-a182-0cf6409c34cb" d="M23.35,30.11c-.19.14-.4.31-.61.5A5.39,5.39,0,0,0,23.35,30.11Z"/><path class="a8753294-6932-446c-a182-0cf6409c34cb" d="M23.12,30.07l.39-.37C23.5,29.6,23.42,29.62,23.12,30.07Z"/><path class="a8753294-6932-446c-a182-0cf6409c34cb" d="M22.05,31.32a5.84,5.84,0,0,1,.69-.71c-.1.07-.16.09-.14.05C22.48,30.8,22.31,31,22.05,31.32Z"/><path class="a8753294-6932-446c-a182-0cf6409c34cb" d="M102.87,176.1l.13,0C103.56,175.86,103.31,175.92,102.87,176.1Z"/><path class="a8753294-6932-446c-a182-0cf6409c34cb" d="M5.57,99.43l0-.07v.09Z"/><path class="a8753294-6932-446c-a182-0cf6409c34cb" d="M6.13,101.44a2.26,2.26,0,0,1-.59-2l-1.18.83C4.94,100.68,5.52,101.06,6.13,101.44Z"/><path class="a8753294-6932-446c-a182-0cf6409c34cb" d="M50.4,164.25l-1.07-1.05c1.83.3,2.8,1.1,1.9,0-.42.55-1.65-.11-2.89-.76s-2.41-1.41-2.87-.88l-.65-.75c.22.16.3.11.52.27-1.22-1.52-1.69.07-3.58-1.44-.63-.56-1-1-.44-.86-.58-.25-1.14-.54-1.7-.82s-.17-.46.24-.11l-2.33-1.63,0,0a10,10,0,0,1-1.8-.59c-.44-.61.37.12.33-.13l-1.43-.76c-.26-.67,1-.1,1.77.63-.14-1-.44-1.13-.95-1.36a4.23,4.23,0,0,1-2.16-1.88l1.21.86c-.2-1.21-1.22-1.78-2.12-3.24.11.43,1.64,3.13.16,2.24A4,4,0,0,0,31,150.64c.32-.34-.39-.9-1.2-1.67l.5-.4c-1-.72-1.14-.43-1.85-.74a2,2,0,0,1-.61-2.09c-1.37-1.66.41,1.64-1.39-.17a19.05,19.05,0,0,0-3.69-3.74c-.62-1.11.45-.07.31-.53-.38-.18-.73-.38-1.09-.58-.15-.23,0-.25.12-.26-.72-.64-.56.32-1.58-.78-.41,0-.66-.72-1-1.63a4.72,4.72,0,0,0-1.59-2.54c-.09-.48.45,0,.59-.28-.93-.9-1.28-1.32-1.63-1.68a19.7,19.7,0,0,0-1.52-1.37c-.17-.59-.37-1.15-.51-1.75.19,1.39-1.09.2-2.19-.91a12.57,12.57,0,0,0,.06,1.26l-1.41-2c0-.3.27-.18.69,0l-.34-.32c-.18-.86.36-.63,1-.25,0,.31,0,.62,0,.93.61.34,1.24.62,1.51.33a2.72,2.72,0,0,1-.5-.59c.16.08.29.12.31,0s-.21-.25-.53-.51l.39-.79h-.31c-.36-1-.61-2-.9-2.93-1.57-1.65-3.26-3-4.74-6.25.77.66.87-.1,1.47-.26-.34,1.12,1.22,2.4,1.72,4.11-.27-.89.08-.81.26-.63L9.61,119c.49-.1.13-.76.07-1.62-.74.92-1.4-2-2-3.21.31-.17.69,0,1.12,1.56.15-1.86-1.77-1.83-1.62-3.67.11.37.11.59.32.69-.53-.8-.88-3-.45-2.56l.1.37c-.25-1.26-.62-3.18-1.09-4.81s-.83-3-1.28-3.13a4.27,4.27,0,0,1,1.26.31c-.59-.68-1.19-1.37-1.76-2.08L2.58,98.66c.76.33,2.34-1.37,3,.7a6.37,6.37,0,0,0-.29-2.63c-.06.42-1,1.12-1.07.56a19.9,19.9,0,0,0,.94-3.1c-.13.64-1.3,0-1.32-1,.18.14,1.13-.13,1.27.23-.43-.8-.83-1.62-1.19-2.44.2.62,1,.09,1.27-.45-.22.25,0-2.12-.08-2.78l-.27,1C5,86,3.33,86,3.53,83.18a.87.87,0,0,0,1.62-.45A18.17,18.17,0,0,1,3.71,80.6a10.59,10.59,0,0,1-.78-1.7A6.63,6.63,0,0,1,2.6,77l.4-.43-.08-2a69,69,0,0,1,2.52,6.73c.36-1,.41-.24.54-1.79.36-.5.38.9.35,1.35.1-.59.18-1.18.29-1.77L7,77.39c-.68.06-.27-2.82-.8-2.78,0,1.33,0,2.66.07,4-.34,0-.73-.59-1-1.55a7.24,7.24,0,0,1,0-3.53c.39-.59,1.07.71,1.31.7a6.13,6.13,0,0,1,.26-2.67L7,72.68a4.25,4.25,0,0,0,.13-1.93,3.09,3.09,0,0,1,.55-2.06c.18-.56,1.27-1.48.91-1.68-1,.72-3.32.31-3.71-.49A22.72,22.72,0,0,1,7.07,63.1c.86-.76.93,1.86,1.67,1.21-.17-.09-.22-.68-.23-.92.34-.54.46.42.8-.89-.57-.43,1-2.57-.32-.79.27-1.32.61-1.28,1.12-2.76-.61.31-.88-1.86-.52-3.19.13.14.46,0,.61-.14a24.05,24.05,0,0,1,1.63-3.09c.53-.89,1-1.78,1.63-2.9.26-.14,1-1.13,1-.53a3.89,3.89,0,0,1,.38-1.49c1.24-1-.75,1.59.42.91-.15-.13,0-.65.17-1.27s.53-1.3.72-1.85c-.35,0-.71.54-1,1.22a14.45,14.45,0,0,0-.7,2.07c-.75-.39-.61-2.57.5-5.11.94-2,1-.51,1-.9,2.38-3.28.67-3.75,3.2-6.13,1.23-.76.89.6,1.38.59-.86,1.53-1.9,1.94-2.53,3,.35-.36.68-.72,1-1.06a6.26,6.26,0,0,1-1.2,2c.95-.7,4-5.5,6.38-7.57.2-.55.72-1.36.25-1.17-.2.26-.4.51-.59.79-.45.21-.27-.25-.09-.65s.37-.74-.12-.34a11.26,11.26,0,0,1,2.77-3.84l.69.17c-.15-.1-1.13.62-1.33,1.15.3-.8,2.6-1.48,2.62-2.66l-1.23.64c.71-1.18,1.44-2.84,2.84-3.82-1,.08-.24.31-1.61.61,1.33-.12-3.09,3-1.26,2.5-1.45.3-1.76,1.25-3.34,2,.18.1.67-.17-.35.82a1.59,1.59,0,0,1-.08.35l-.08.06.07,0c0,.07,0,.08,0,0a1.75,1.75,0,0,1,.71-.34c-.13.83-1.63,2.49-1.9,3.25-.6.58,0-.42-.41-.21l-.44,1.11c-.42-.2-2,1.26-.95-.44-.37.46-.77.91-1.13,1.38a8.9,8.9,0,0,0-2.15,2.64c-.6.61-.79,2-.69,1.22l-1.32,2.49-.11,0c-1.55,2.3-2.32,5.2-4.5,7.61a18.06,18.06,0,0,1-1.4,3.16L8.68,52c-.43,1.11-1.79,3.15-1.63,3.77A2.91,2.91,0,0,0,6,57a14.57,14.57,0,0,0-.8,2l-.69,2.23A16.52,16.52,0,0,1,4,63.1l.46.23C4.2,64,4,64.7,3.85,65.44S3.6,67,3.47,67.87h.47a10.65,10.65,0,0,1-.7,2.78,26.8,26.8,0,0,0-1,3.41c-.13-.19,0-.79.22-1.2a8.36,8.36,0,0,0-.85,4.42,12.89,12.89,0,0,1-.41,4.28,3.05,3.05,0,0,1-.17,1.59,1,1,0,0,0,0-.17,1.06,1.06,0,0,0,0,.27c-.09.29-.2.58-.29.9A4.14,4.14,0,0,0,1,83.4a16.94,16.94,0,0,0,.07,2l-.5.3v.17c-.22.74.2.61.58.23a5,5,0,0,0,.24,1c-.83.57.24,2-.6,2.78a7.77,7.77,0,0,1,.4,2.13c.17.93.41,1.84.84,2-.11,0-.15.25-.18-.15a5.85,5.85,0,0,0,.17,2.41l-.6.39,1,1.75c-.26,1.13-.43,1.62-1,.57,1,2.57.47,2.13,1.53,4.26l-.41,0c.14.8.86,2,.61,2.51-.21,1,.21,3.16.78,5.69.33,1.26.68,2.6,1,3.92a38,38,0,0,1,.9,3.75c.41-.62.45-.06.51.64s.2,1.52.65,1.44c-.16.35-.06,1-.56.4a14.89,14.89,0,0,1,1,2.71,4.49,4.49,0,0,0,1.28,2c-.14.37-.58-.3-.63,0,.14.15.53.6.49.89s-.36-.22-.62-.52c1,2.23,1.93,2.07,2.73,1.87a2.82,2.82,0,0,0,1.43,2.31c0,.5,0,1.27-.72,0,.29.79,2.22,4.69,2.81,4.44a2.49,2.49,0,0,0,.76,1.18c1,1.6,1.05,1.77,2.13,3.29l-.2-.49c1,.18,1,1.15,2,2.3l-.09,0c1.6,3.1,1.09,1,2.72,4.05l.25-.45c.5-.21.84.47,1.28,1.35A7.75,7.75,0,0,0,24.91,149l-.27-.71c.49.28.72,1.08.95,1.9a7.13,7.13,0,0,0,.77,2.12c.11.23-.37-.16-.65-.35,1.59,2.46.71-.18,2.31,1.21.05.52-1,.29,0,1.31.35.69,3.78,2,4.89,3.7-.17-.48-.32-.95.55-.47,1.18.91,2.6,3.3,4.18,3.46.11.18.13.27.1.33,1,.52,3.28,1.84,4.08,1.86,0,1,1.63,1.76,3.13,2.45s3,1.17,2.58,1.85c1,.56,2.08,1.1,3.16,1.59l-.16.1a6.25,6.25,0,0,0,3.74,1.12c.43.31,0,.29-.05.34a17.78,17.78,0,0,0,3.05,1.52,16.27,16.27,0,0,0,3,.49l.09.57a16.89,16.89,0,0,1,2.82,1.24A14.93,14.93,0,0,0,68,176.16s-.13.12-.4.11A31.31,31.31,0,0,1,73.22,178c1.82.57,3.41.93,4.22.17l2.44-.06c-3-.62.58-.7-.62-1.2,1.2.09,3,1,1.52.89l-.22-.13c-.34.42.59.68,1.6.84s2.08.28,2,.6c6.08.6,12.09,1.12,17.86.56l-.73-.68a18.87,18.87,0,0,0,2-.19c.54.1.77.47-.65.64.8.31,2.34-.68,2.35-.84,2.82-.1-1,1-.11.89l1.16-.22-.28,0c.45-.22.68-.41,1-.57a8.22,8.22,0,0,1,1.61-.46c1.1-.07.64.33,1.06.27,0,0,.16,0,.65-.11l2.5-.46-1.12-.36c1-.48,2.31-.53,1-.85.93.26,3.23-.27,5.41-.9a43.67,43.67,0,0,1,4.74-1.56,17.79,17.79,0,0,1,4.49-2.26c-.49.06-1-.38.52-1,0,1.48,2.94-.8,4.58-.53-1.32,0,4-2.43,2-2.3,1.25-.58.32.39,1.39.15a39.37,39.37,0,0,1,4.53-2.86,32.89,32.89,0,0,0,5-3.25c-.06-.18-.77,0-.22-.72.76-.17,1.48-.4,2.22-.63.57-.58-.07-1.25,1.45-1.71-.26,0-.64,0-.26-.34A34.31,34.31,0,0,0,153,155c1.49-1.37,2.79-2.94,4.19-4.41s2.63-3.1,4-4.61c.66-.78,1.33-1.54,2-2.28l2.16-2.2c-.89.72-.51.09-.05-.61-.37.41-.35-.26-.61-.3l2.44-2.43c-.22-.87,1.82-3.14,1.45-3.76l-.44,1c.07-1.58-2.43.85-3.13.15,0,.91-.87,1.57-1.72,2.37a5.56,5.56,0,0,0-2,3.08c-.5.32,0-.56-.33-.46A3.91,3.91,0,0,1,159.5,143l0-.19a25.29,25.29,0,0,1-3.24,3.72c-.53.52-1.07,1.06-1.7,1.64s-1.36,1.2-2.19,2l.57.09a5.3,5.3,0,0,1-1.36.93c-.26,1.31,1.91-1.92,1.78-.64-1.51.32-4.94,4.75-6.32,4.5-1.14.94.7.14-.45,1.08l-.5,0,0,.53c-.8.57-1.41.6-1.59.43a5.81,5.81,0,0,0,.65-.66,7.33,7.33,0,0,0-1.83,1.39,8.58,8.58,0,0,1-1.29,1.07l1.26-.69c-3.08,2.63-7.32,5.15-10.48,7.5l.37,0a8.33,8.33,0,0,1-2.36,1.39,12.19,12.19,0,0,0-2.71,1.2l.09-.1a6.86,6.86,0,0,1-2.07,1.34c.65-.56-1.65.13-.76-.55-2.82,1.65-1.34.93-3,2.54l-.59-.16a4.37,4.37,0,0,1-2.11,1.38c1.18-.75-1.18-.19.11-1.08-3.47.4-4.64,2.33-6.48,1.62-1.26,1.42,3-.25,2.23.2.82.12-1,1.09-2.14,1.29s-2.14-.81-4.83-.23c.27,0,.28-.13.54-.18-1.06-.07-1.9.82-3.23.54-.61.71-1.63.19-1.72,1l2.49-.54c-1.38.39-2.61,1.53-5,1.39a6.39,6.39,0,0,1,1.32-.66c-.71-.12-1.31.34-2.05.14.13-.75,3-.54,4.48-1.36-.78-.23-2.8,1-2.14,0-1,1.28-2.69.17-4.48,1.15l.09-.48a4.44,4.44,0,0,1-1.43.38c.32-.21.63-.43.94-.67-1.47.62-2.9-.35-4.32,0,3-.11.68.55,2,.85a6,6,0,0,1-2,.15,3,3,0,0,1-1-.45,4.87,4.87,0,0,0-3.3-.74c.56,0,2.1.33,1.22.55a7,7,0,0,1-2.3-.64c-2.76-.08.39.52-.8.73-.9-.65-1.38.18-2.62.21l0-.48c-3.11-.67-1,.94-3.75.2q.65-.24,1.29-.51c-.5,0-1,0-1.5,0l.38-.5a7.91,7.91,0,0,1-3.66-.44c.3.41-.36.82-1.75.56-.89-.48.62-.35-1.35-.68a1.53,1.53,0,0,1,1.82.13c.12-.13.49-.21.61-.34A11.79,11.79,0,0,0,74,173.1a3.49,3.49,0,0,1,.73.28c-1,0-2,0-3,0-.4-.29,0-.34.37-.39-.58-.09-1,0-1.87-.15.32-.32.38-.73,1.59-.61-.92-.07-1.84-.16-2.75-.3-.13-.22-1.2-.85-.82-.89-1.38-.61-3.76-.42-5.56-1.36a1.65,1.65,0,0,1-.76-.08c-1.73-.79-3.1-1.81-5.35-2.27l-.86-1.16c-1.65-.59,1.19,1.54-1.57.52-2-.74-.43-.89-1-1.39a12.42,12.42,0,0,1-2.08-.39,5.44,5.44,0,0,1-2.3-1.4A14.56,14.56,0,0,1,50.4,164.25ZM32.6,152c.38.21,1.21.54,1.25,1C33.13,153,33,152.56,32.6,152ZM12,126.2a2,2,0,0,1,.49,1.27A3.59,3.59,0,0,1,12,126.2Zm6.71-90.11a.07.07,0,0,1,0,0C18,36.82,18.25,36.59,18.73,36.09Zm1.4-1.5c.08-.21,0-.24-.09-.21a2.55,2.55,0,0,1-.61.95C19.62,35.29,19.83,35.12,20.13,34.59Zm89.5,143.68-.41,0C110.07,177.91,109.85,178.08,109.63,178.27Z"/><path class="a8753294-6932-446c-a182-0cf6409c34cb" d="M14.3,129.27a.37.37,0,0,1-.15.28C14.3,129.66,14.39,129.62,14.3,129.27Z"/><path class="a8753294-6932-446c-a182-0cf6409c34cb" d="M62.72,169.62l.06,0,.09-.06Z"/><path class="a8753294-6932-446c-a182-0cf6409c34cb" d="M9.2,63.64a2.24,2.24,0,0,1-.46.67C8.84,64.36,9,64.22,9.2,63.64Z"/><path class="a8753294-6932-446c-a182-0cf6409c34cb" d="M26.74,25.92l-.84,1a3.18,3.18,0,0,1,1-.73C26.75,26.15,26.45,26.21,26.74,25.92Z"/><path class="a8753294-6932-446c-a182-0cf6409c34cb" d="M37.15,20.68c.12-.16.31-.24.42-.4l-.17-.15C36.77,20.63,36.44,21.1,37.15,20.68Z"/><path class="a8753294-6932-446c-a182-0cf6409c34cb" d="M28.72,26.19c.35.21.83-.45,1.46-1.11l-.12.11C29.88,24.6,29.26,25.37,28.72,26.19Z"/><path class="a8753294-6932-446c-a182-0cf6409c34cb" d="M30.32,24.93a8.25,8.25,0,0,1,.61-.58C30.86,24.11,30.65,24.55,30.32,24.93Z"/><path class="a8753294-6932-446c-a182-0cf6409c34cb" d="M21.56,32.41c.36-.28-.22-.55.06-.64C21.53,31.07,20.26,34.43,21.56,32.41Z"/><path class="a8753294-6932-446c-a182-0cf6409c34cb" d="M30.17,26.64l-.58-.14-.08.65C29.73,27,29.94,26.8,30.17,26.64Z"/><path class="a8753294-6932-446c-a182-0cf6409c34cb" d="M25,31.5l1.06-1c-.08,0,0-.21.13-.4C25.6,30.77,24.87,31.43,25,31.5Z"/><path class="a8753294-6932-446c-a182-0cf6409c34cb" d="M26.2,30.13a5,5,0,0,0,.72-.91A7,7,0,0,0,26.2,30.13Z"/><polygon class="a8753294-6932-446c-a182-0cf6409c34cb" points="28.89 28.13 28.52 28.36 27.78 29.05 28.89 28.13"/><path class="a8753294-6932-446c-a182-0cf6409c34cb" d="M15.72,43.83,15,45.25c.07.22.38-.09.62-.62C15.74,44.24,16,43.71,15.72,43.83Z"/><path class="a8753294-6932-446c-a182-0cf6409c34cb" d="M19.44,40.63a1.51,1.51,0,0,1-.7.36l.49.39Z"/><path class="a8753294-6932-446c-a182-0cf6409c34cb" d="M17.1,44.48c.06.23-.73,2.17.24.48C17.27,44.74,18,43.34,17.1,44.48Z"/><polygon class="a8753294-6932-446c-a182-0cf6409c34cb" points="6.87 65.41 6.98 65.03 5.99 64.8 6.87 65.41"/><path class="a8753294-6932-446c-a182-0cf6409c34cb" d="M5.86,85.87c.34-1.78-.6-.46-.22-2.07-.21-.44-.31,1.31-.5.87C5.34,85.77,5.17,86.33,5.86,85.87Z"/><path class="a8753294-6932-446c-a182-0cf6409c34cb" d="M5.14,84.67q0-.27-.12-.57A2.31,2.31,0,0,0,5.14,84.67Z"/><polygon class="a8753294-6932-446c-a182-0cf6409c34cb" points="168.74 136.51 169.54 135.56 168.85 136.07 168.74 136.51"/><path class="a8753294-6932-446c-a182-0cf6409c34cb" d="M169.27,134.11l.71.07-.14-.91C169.73,133.52,169.51,134,169.27,134.11Z"/><path class="a8753294-6932-446c-a182-0cf6409c34cb" d="M31.17,148.82l-.17.05c0,.24.19.44.55.84Z"/><polygon class="a8753294-6932-446c-a182-0cf6409c34cb" points="42.89 159.04 42.67 158.88 42.76 159.65 42.89 159.04"/><path class="a8753294-6932-446c-a182-0cf6409c34cb" d="M54.53,165c-.46-.26-1.08-.43-1.54-.69C54.07,164.72,54.34,165.7,54.53,165Z"/></g></g></svg>